<?xml version="1.0" standalone="no"?><!DOCTYPE svg PUBLIC "-//W3C//DTD SVG 1.1//EN" "http://www.w3.org/Graphics/SVG/1.1/DTD/svg11.dtd"><svg t="1583171557132" class="icon" viewBox="0 0 1024 1024" version="1.1" xmlns="http://www.w3.org/2000/svg" p-id="8788" xmlns:xlink="http://www.w3.org/1999/xlink" width="32" height="32"><defs><style type="text/css"></style></defs><path d="M960.4096 754.11456h-15.69792c-12.87168 0-24.29952-11.4176-24.29952-25.72288 0-7.1168 2.83648-12.86144 8.58112-18.56512l10.00448-10.00448c10.00448-10.00448 10.00448-24.27904 0-34.28352L914.69824 644.096c-4.28032-4.3008-10.00448-7.13728-17.14176-7.13728s-11.43808 1.42336-17.12128 7.13728l-10.0352 10.01472c-4.28032 4.3008-10.01472 7.13728-17.13152 7.13728-14.2848 0-32.86016-12.84096-32.86016-24.27904v-15.69792c0-12.88192-11.44832-22.87616-24.27904-22.87616h-22.8352a22.56896 22.56896 0 0 0-22.87616 22.87616v2.53952a465.33632 465.33632 0 0 0-66.11968-53.15584c-6.61504-4.4032-18.3808-4.95616-24.96512 0-120.55552 91.136-271.80032 90.90048-392.43776 0-6.54336-4.95616-18.29888-4.4032-24.94464 0C119.30624 651.69408 46.7456 780.07296 33.52576 925.76768c-1.21856 13.44512 12.17536 24.71936 24.71936 24.71936h20.54144a855.04 855.04 0 0 1 7.28064-49.41824h-0.06144c5.77536-39.23968 18.50368-89.74336 47.17568-142.2848A407.4496 407.4496 0 0 1 254.2592 622.22336c127.36512 88.4224 290.43712 88.65792 417.73056-0.02048a412.93824 412.93824 0 0 1 45.44512 37.888c-4.4544-1.29024-8.51968-3.66592-11.32544-7.41376l-9.984-8.58112c-4.3008-5.72416-10.00448-7.13728-17.16224-7.13728-5.72416 0-12.84096 2.83648-17.14176 7.13728l-21.42208 22.85568a21.77024 21.77024 0 0 0 0 32.86016l10.00448 10.00448c4.3008 4.28032 7.13728 11.43808 7.13728 18.56512 0 14.29504-11.4176 25.72288-24.27904 25.72288h-15.7184a22.5792 22.5792 0 0 0-22.85568 22.85568v31.41632c0 12.86144 10.02496 22.85568 22.85568 22.85568h15.7184c12.86144 0 24.27904 11.43808 24.27904 25.72288 0 7.13728-2.83648 12.84096-8.56064 18.57536l-10.02496 10.00448c-10.02496 9.984-10.02496 24.27904 0 34.28352l22.85568 22.85568c4.3008 4.28032 10.02496 7.13728 17.14176 7.13728 5.72416 0 12.86144-2.85696 17.16224-7.13728l9.984-10.00448c4.29056-5.72416 11.43808-8.58112 18.57536-8.58112 14.29504 0 25.72288 11.43808 25.72288 24.27904v15.73888c0 12.84096 10.00448 22.8352 22.87616 22.8352h31.3856a22.54848 22.54848 0 0 0 22.86592-22.8352v-15.73888c0-12.84096 11.43808-24.27904 25.72288-24.27904 7.1168 0 12.8512 2.85696 18.56512 8.58112l10.00448 10.00448c4.28032 4.28032 10.00448 7.13728 17.14176 7.13728 7.15776 0 12.88192-2.85696 17.16224-7.13728l22.85568-22.85568c10.00448-10.00448 10.00448-24.29952 0-34.28352l-10.00448-10.00448c-5.74464-4.3008-8.58112-11.43808-8.58112-18.57536 0-14.2848 11.42784-25.72288 24.29952-25.72288h15.69792a22.55872 22.55872 0 0 0 22.85568-22.85568v-31.41632a22.528 22.528 0 0 0-22.8352-22.84544zM788.97152 878.40768c-47.12448 0-85.67808-38.58432-85.67808-85.71904 0-47.1552 38.56384-85.71904 85.67808-85.71904 47.14496 0 85.71904 38.56384 85.71904 85.71904 0 47.14496-38.58432 85.71904-85.71904 85.71904z" p-id="8789"></path><path d="M463.13472 609.14688c156.16 4.096 277.84192-131.65568 281.78432-281.72288 4.07552-156.19072-131.70688-277.85216-281.78432-281.77408-156.20096 4.07552-277.72928 125.5424-281.78432 281.78432-4.11648 156.19072 131.71712 277.79072 281.78432 281.71264z m0-514.05824c129.00352 3.3792 228.95616 103.34208 232.32512 232.33536 3.38944 128.96256-108.45184 229.05856-232.32512 232.32512-128.98304 3.3792-229.14048-108.42112-232.37632-232.32512-3.38944-128.99328 108.4416-229.08928 232.37632-232.33536z" p-id="8790"></path></svg>